<svg width="361" height="88" viewBox="0 0 361 88" fill="none" xmlns="http://www.w3.org/2000/svg">
<path d="M10 0H0V10H10V0Z" fill="#282832"/>
<path d="M10 13H0V23H10V13Z" fill="#282832"/>
<path d="M10 26H0V36H10V26Z" fill="#282832"/>
<path d="M10 39H0V49H10V39Z" fill="#282832"/>
<path d="M10 52H0V62H10V52Z" fill="#282832"/>
<path d="M10 65H0V75H10V65Z" fill="#282832"/>
<path d="M10 78H0V88H10V78Z" fill="#282832"/>
<path d="M23 0H13V10H23V0Z" fill="#282832"/>
<path d="M23 13H13V23H23V13Z" fill="#282832"/>
<path d="M23 26H13V36H23V26Z" fill="#282832"/>
<path d="M23 39H13V49H23V39Z" fill="#282832"/>
<path d="M23 52H13V62H23V52Z" fill="#282832"/>
<path d="M23 65H13V75H23V65Z" fill="#282832"/>
<path d="M23 78H13V88H23V78Z" fill="#282832"/>
<path d="M36 0H26V10H36V0Z" fill="#282832"/>
<path d="M36 13H26V23H36V13Z" fill="#282832"/>
<path d="M36 26H26V36H36V26Z" fill="#282832"/>
<path d="M36 39H26V49H36V39Z" fill="#282832"/>
<path d="M36 52H26V62H36V52Z" fill="#282832"/>
<path d="M36 65H26V75H36V65Z" fill="#282832"/>
<path d="M36 78H26V88H36V78Z" fill="#282832"/>
<path d="M49 0H39V10H49V0Z" fill="#282832"/>
<path d="M49 13H39V23H49V13Z" fill="#282832"/>
<path d="M49 26H39V36H49V26Z" fill="#282832"/>
<path d="M49 39H39V49H49V39Z" fill="#282832"/>
<path d="M49 52H39V62H49V52Z" fill="#282832"/>
<path d="M49 65H39V75H49V65Z" fill="#282832"/>
<path d="M49 78H39V88H49V78Z" fill="#282832"/>
<path d="M62 0H52V10H62V0Z" fill="#282832"/>
<path d="M62 13H52V23H62V13Z" fill="#282832"/>
<path d="M62 26H52V36H62V26Z" fill="#282832"/>
<path d="M62 39H52V49H62V39Z" fill="#282832"/>
<path d="M62 52H52V62H62V52Z" fill="#282832"/>
<path d="M62 65H52V75H62V65Z" fill="#282832"/>
<path d="M62 78H52V88H62V78Z" fill="#282832"/>
<path d="M75 0H65V10H75V0Z" fill="#282832"/>
<path d="M75 13H65V23H75V13Z" fill="#282832"/>
<path d="M75 26H65V36H75V26Z" fill="#282832"/>
<path d="M75 39H65V49H75V39Z" fill="#282832"/>
<path d="M75 52H65V62H75V52Z" fill="#282832"/>
<path d="M75 65H65V75H75V65Z" fill="#282832"/>
<path d="M75 78H65V88H75V78Z" fill="#282832"/>
<path d="M88 0H78V10H88V0Z" fill="#282832"/>
<path d="M88 13H78V23H88V13Z" fill="#282832"/>
<path d="M88 26H78V36H88V26Z" fill="#282832"/>
<path d="M88 39H78V49H88V39Z" fill="#282832"/>
<path d="M88 52H78V62H88V52Z" fill="#282832"/>
<path d="M88 65H78V75H88V65Z" fill="#282832"/>
<path d="M88 78H78V88H88V78Z" fill="#282832"/>
<path d="M101 0H91V10H101V0Z" fill="#282832"/>
<path d="M101 13H91V23H101V13Z" fill="#282832"/>
<path d="M101 26H91V36H101V26Z" fill="#282832"/>
<path d="M101 39H91V49H101V39Z" fill="#282832"/>
<path d="M101 52H91V62H101V52Z" fill="#282832"/>
<path d="M101 65H91V75H101V65Z" fill="#282832"/>
<path d="M101 78H91V88H101V78Z" fill="#282832"/>
<path d="M114 0H104V10H114V0Z" fill="#282832"/>
<path d="M114 13H104V23H114V13Z" fill="#282832"/>
<path d="M114 26H104V36H114V26Z" fill="#282832"/>
<path d="M114 39H104V49H114V39Z" fill="#282832"/>
<path d="M114 52H104V62H114V52Z" fill="#282832"/>
<path d="M114 65H104V75H114V65Z" fill="#282832"/>
<path d="M114 78H104V88H114V78Z" fill="#282832"/>
<path d="M127 0H117V10H127V0Z" fill="#282832"/>
<path d="M127 13H117V23H127V13Z" fill="#282832"/>
<path d="M127 26H117V36H127V26Z" fill="#282832"/>
<path d="M127 39H117V49H127V39Z" fill="#282832"/>
<path d="M127 52H117V62H127V52Z" fill="#282832"/>
<path d="M127 65H117V75H127V65Z" fill="#282832"/>
<path d="M127 78H117V88H127V78Z" fill="#282832"/>
<path d="M140 0H130V10H140V0Z" fill="#282832"/>
<path d="M140 13H130V23H140V13Z" fill="#282832"/>
<path d="M140 26H130V36H140V26Z" fill="#282832"/>
<path d="M140 39H130V49H140V39Z" fill="#282832"/>
<path d="M140 52H130V62H140V52Z" fill="#282832"/>
<path d="M140 65H130V75H140V65Z" fill="#282832"/>
<path d="M140 78H130V88H140V78Z" fill="#282832"/>
<path d="M153 0H143V10H153V0Z" fill="#282832"/>
<path d="M153 13H143V23H153V13Z" fill="#282832"/>
<path d="M153 26H143V36H153V26Z" fill="#282832"/>
<path d="M153 39H143V49H153V39Z" fill="#282832"/>
<path d="M153 52H143V62H153V52Z" fill="#282832"/>
<path d="M153 65H143V75H153V65Z" fill="#282832"/>
<path d="M153 78H143V88H153V78Z" fill="#282832"/>
<path d="M166 0H156V10H166V0Z" fill="#282832"/>
<path d="M166 13H156V23H166V13Z" fill="#282832"/>
<path d="M166 26H156V36H166V26Z" fill="#282832"/>
<path d="M166 39H156V49H166V39Z" fill="#282832"/>
<path d="M166 52H156V62H166V52Z" fill="#282832"/>
<path d="M166 65H156V75H166V65Z" fill="#282832"/>
<path d="M166 78H156V88H166V78Z" fill="#282832"/>
<path d="M179 0H169V10H179V0Z" fill="#282832"/>
<path d="M179 13H169V23H179V13Z" fill="#282832"/>
<path d="M179 26H169V36H179V26Z" fill="#282832"/>
<path d="M179 39H169V49H179V39Z" fill="#282832"/>
<path d="M179 52H169V62H179V52Z" fill="#282832"/>
<path d="M179 65H169V75H179V65Z" fill="#282832"/>
<path d="M179 78H169V88H179V78Z" fill="#282832"/>
<path d="M192 0H182V10H192V0Z" fill="#282832"/>
<path d="M192 13H182V23H192V13Z" fill="#282832"/>
<path d="M192 26H182V36H192V26Z" fill="#282832"/>
<path d="M192 39H182V49H192V39Z" fill="#282832"/>
<path d="M192 52H182V62H192V52Z" fill="#282832"/>
<path d="M192 65H182V75H192V65Z" fill="#282832"/>
<path d="M192 78H182V88H192V78Z" fill="#282832"/>
<path d="M205 0H195V10H205V0Z" fill="#282832"/>
<path d="M205 13H195V23H205V13Z" fill="#282832"/>
<path d="M205 26H195V36H205V26Z" fill="#282832"/>
<path d="M205 39H195V49H205V39Z" fill="#282832"/>
<path d="M205 52H195V62H205V52Z" fill="#282832"/>
<path d="M205 65H195V75H205V65Z" fill="#282832"/>
<path d="M205 78H195V88H205V78Z" fill="#282832"/>
<path d="M218 0H208V10H218V0Z" fill="#282832"/>
<path d="M218 13H208V23H218V13Z" fill="#282832"/>
<path d="M218 26H208V36H218V26Z" fill="#282832"/>
<path d="M218 39H208V49H218V39Z" fill="#282832"/>
<path d="M218 52H208V62H218V52Z" fill="#282832"/>
<path d="M218 65H208V75H218V65Z" fill="#282832"/>
<path d="M218 78H208V88H218V78Z" fill="#282832"/>
<path d="M231 0H221V10H231V0Z" fill="#282832"/>
<path d="M231 13H221V23H231V13Z" fill="#282832"/>
<path d="M231 26H221V36H231V26Z" fill="#282832"/>
<path d="M231 39H221V49H231V39Z" fill="#282832"/>
<path d="M231 52H221V62H231V52Z" fill="#282832"/>
<path d="M231 65H221V75H231V65Z" fill="#282832"/>
<path d="M231 78H221V88H231V78Z" fill="#282832"/>
<path d="M244 0H234V10H244V0Z" fill="#282832"/>
<path d="M244 13H234V23H244V13Z" fill="#282832"/>
<path d="M244 26H234V36H244V26Z" fill="#282832"/>
<path d="M244 39H234V49H244V39Z" fill="#282832"/>
<path d="M244 52H234V62H244V52Z" fill="#282832"/>
<path d="M244 65H234V75H244V65Z" fill="#282832"/>
<path d="M244 78H234V88H244V78Z" fill="#282832"/>
<path d="M257 0H247V10H257V0Z" fill="#282832"/>
<path d="M257 13H247V23H257V13Z" fill="#282832"/>
<path d="M257 26H247V36H257V26Z" fill="#282832"/>
<path d="M257 39H247V49H257V39Z" fill="#282832"/>
<path d="M257 52H247V62H257V52Z" fill="#282832"/>
<path d="M257 65H247V75H257V65Z" fill="#282832"/>
<path d="M257 78H247V88H257V78Z" fill="#282832"/>
<path d="M270 0H260V10H270V0Z" fill="#282832"/>
<path d="M270 13H260V23H270V13Z" fill="#282832"/>
<path d="M270 26H260V36H270V26Z" fill="#282832"/>
<path d="M270 39H260V49H270V39Z" fill="#282832"/>
<path d="M270 52H260V62H270V52Z" fill="#282832"/>
<path d="M270 65H260V75H270V65Z" fill="#282832"/>
<path d="M270 78H260V88H270V78Z" fill="#282832"/>
<path d="M283 0H273V10H283V0Z" fill="#282832"/>
<path d="M283 13H273V23H283V13Z" fill="#282832"/>
<path d="M283 26H273V36H283V26Z" fill="#282832"/>
<path d="M283 39H273V49H283V39Z" fill="#282832"/>
<path d="M283 52H273V62H283V52Z" fill="#282832"/>
<path d="M283 65H273V75H283V65Z" fill="#282832"/>
<path d="M283 78H273V88H283V78Z" fill="#282832"/>
<path d="M296 0H286V10H296V0Z" fill="#282832"/>
<path d="M296 13H286V23H296V13Z" fill="#282832"/>
<path d="M296 26H286V36H296V26Z" fill="#282832"/>
<path d="M296 39H286V49H296V39Z" fill="#282832"/>
<path d="M296 52H286V62H296V52Z" fill="#282832"/>
<path d="M296 65H286V75H296V65Z" fill="#282832"/>
<path d="M296 78H286V88H296V78Z" fill="#282832"/>
<path d="M309 0H299V10H309V0Z" fill="#282832"/>
<path d="M309 13H299V23H309V13Z" fill="#282832"/>
<path d="M309 26H299V36H309V26Z" fill="#282832"/>
<path d="M309 39H299V49H309V39Z" fill="#282832"/>
<path d="M309 52H299V62H309V52Z" fill="#282832"/>
<path d="M309 65H299V75H309V65Z" fill="#282832"/>
<path d="M309 78H299V88H309V78Z" fill="#282832"/>
<path d="M322 0H312V10H322V0Z" fill="#282832"/>
<path d="M322 13H312V23H322V13Z" fill="#282832"/>
<path d="M322 26H312V36H322V26Z" fill="#282832"/>
<path d="M322 39H312V49H322V39Z" fill="#282832"/>
<path d="M322 52H312V62H322V52Z" fill="#282832"/>
<path d="M322 65H312V75H322V65Z" fill="#282832"/>
<path d="M322 78H312V88H322V78Z" fill="#282832"/>
<path d="M335 0H325V10H335V0Z" fill="#282832"/>
<path d="M335 13H325V23H335V13Z" fill="#282832"/>
<path d="M335 26H325V36H335V26Z" fill="#282832"/>
<path d="M335 39H325V49H335V39Z" fill="#282832"/>
<path d="M335 52H325V62H335V52Z" fill="#282832"/>
<path d="M335 65H325V75H335V65Z" fill="#282832"/>
<path d="M335 78H325V88H335V78Z" fill="#282832"/>
<path d="M348 0H338V10H348V0Z" fill="#282832"/>
<path d="M348 13H338V23H348V13Z" fill="#282832"/>
<path d="M348 26H338V36H348V26Z" fill="#282832"/>
<path d="M348 39H338V49H348V39Z" fill="#282832"/>
<path d="M348 52H338V62H348V52Z" fill="#282832"/>
<path d="M348 65H338V75H348V65Z" fill="#282832"/>
<path d="M348 78H338V88H348V78Z" fill="#282832"/>
<path d="M361 0H351V10H361V0Z" fill="#282832"/>
<path d="M361 13H351V23H361V13Z" fill="#282832"/>
<path d="M361 26H351V36H361V26Z" fill="#282832"/>
<path d="M361 39H351V49H361V39Z" fill="#282832"/>
<path d="M361 52H351V62H361V52Z" fill="#282832"/>
<path d="M361 65H351V75H361V65Z" fill="#282832"/>
<path d="M361 78H351V88H361V78Z" fill="#282832"/>
</svg>
